<?xml version="1.0" standalone="no"?>
<!DOCTYPE svg PUBLIC "-//W3C//DTD SVG 20010904//EN"
 "http://www.w3.org/TR/2001/REC-SVG-20010904/DTD/svg10.dtd">
<svg version="1.0" xmlns="http://www.w3.org/2000/svg"
 width="835.000000pt" height="299.000000pt" viewBox="0 0 835.000000 299.000000"
 preserveAspectRatio="xMidYMid meet">

<g transform="translate(0.000000,299.000000) scale(0.100000,-0.100000)"
fill="#383732" stroke="none">
<path d="M3633 2975 c-68 -19 -115 -43 -183 -94 -94 -70 -243 -252 -342 -416
-52 -87 -189 -365 -229 -467 -32 -82 -36 -88 -69 -95 -42 -10 -50 -46 -12 -51
12 -2 22 -4 22 -5 0 -1 -9 -29 -19 -62 -29 -92 -36 -191 -17 -245 8 -24 14
-45 13 -46 -8 -6 -137 -10 -137 -4 0 4 14 50 30 101 17 52 34 117 37 145 5 47
3 53 -16 59 -25 8 -24 8 -131 -75 -78 -61 -199 -140 -214 -140 -29 0 51 140
120 211 64 66 6 95 -84 43 -37 -22 -43 -30 -39 -51 3 -17 -7 -45 -34 -89 -60
-98 -93 -170 -86 -188 9 -24 60 -20 115 9 26 14 96 59 156 100 60 42 110 74
113 72 6 -6 -47 -200 -59 -214 -6 -7 -20 -13 -32 -13 -12 0 -87 -16 -166 -35
-85 -21 -155 -33 -170 -30 -24 6 -367 189 -383 205 -10 9 152 397 245 589 75
153 136 224 189 219 31 -3 35 -7 43 -46 11 -46 26 -50 40 -11 5 16 3 36 -7 61
-12 29 -24 39 -56 49 -36 11 -45 9 -88 -12 -86 -43 -169 -190 -333 -589 -50
-124 -93 -227 -95 -228 -2 -2 -48 17 -103 42 -186 85 -261 93 -321 37 -34 -32
-38 -55 -17 -105 20 -48 144 -176 191 -197 51 -24 111 -24 155 0 32 16 92 83
102 111 2 7 74 -23 181 -75 l178 -87 -123 -42 c-316 -108 -570 -245 -703 -381
-79 -80 -108 -140 -113 -232 -4 -64 -1 -80 25 -136 40 -84 79 -127 177 -191
101 -67 163 -86 280 -86 204 0 404 120 568 339 23 31 53 72 68 91 47 63 85
133 162 295 41 88 78 168 82 179 4 12 11 16 24 11 9 -4 67 -9 128 -12 129 -7
196 6 252 46 44 33 102 134 102 180 0 28 3 31 29 31 16 0 39 -8 51 -18 29 -23
20 -59 -26 -103 -58 -57 -33 -83 33 -33 42 32 66 78 61 115 -4 28 -4 29 43 29
36 0 66 9 121 38 70 37 91 63 71 83 -5 5 -37 -5 -79 -27 -77 -39 -145 -48
-171 -21 -33 33 -7 146 53 224 l25 33 172 0 c160 0 176 2 222 24 28 13 59 33
69 45 17 19 18 24 5 36 -12 12 -20 10 -58 -15 -38 -26 -53 -30 -113 -30 l-69
0 34 35 c41 42 49 72 31 113 -23 55 -84 68 -153 33 -88 -46 -227 -216 -265
-325 -14 -42 -114 -130 -172 -152 -40 -15 -45 -15 -69 0 -32 21 -39 50 -33
139 7 101 36 197 62 207 12 5 84 30 161 57 268 92 555 255 711 405 145 139
213 260 214 376 0 77 -16 117 -69 175 -74 80 -198 113 -308 82z m214 -73 c85
-44 118 -121 94 -227 -18 -81 -77 -170 -186 -281 -107 -109 -211 -183 -389
-279 -104 -55 -345 -157 -404 -170 l-33 -7 17 44 c74 191 217 461 317 596 159
215 249 295 380 338 57 19 152 12 204 -14z m-352 -972 c-11 -22 -37 -41 -90
-67 -41 -21 -78 -34 -81 -30 -9 9 60 82 101 108 17 10 42 19 58 19 27 0 27 0
12 -30z m-2037 -277 c88 -22 244 -85 250 -101 2 -7 -16 -33 -41 -57 -37 -38
-51 -45 -82 -45 -23 0 -56 10 -81 25 -61 36 -146 158 -128 186 7 12 3 12 82
-8z m1665 -128 l6 -30 -45 4 c-40 3 -43 5 -32 19 22 28 53 51 59 44 4 -4 9
-21 12 -37z m-113 -79 c-1 -26 -29 -86 -55 -120 -54 -71 -140 -95 -287 -82
-41 4 -79 11 -86 15 -8 5 -5 24 14 71 38 100 30 94 140 103 54 5 105 11 113
15 23 12 161 10 161 -2z m-483 -106 c-12 -33 -27 -60 -32 -60 -9 0 -92 29
-165 58 -24 9 -24 10 15 20 81 23 161 40 182 41 l22 1 -22 -60z m-222 -53 c50
-19 109 -41 133 -48 23 -7 42 -16 42 -21 0 -16 -101 -229 -152 -322 -99 -179
-268 -390 -363 -454 -185 -125 -369 -135 -546 -32 -122 72 -185 167 -177 269
6 83 32 126 137 231 86 86 112 104 246 178 83 45 180 94 215 108 123 51 355
133 365 129 6 -2 51 -19 100 -38z"/>
<path d="M4295 2389 c-215 -31 -322 -118 -274 -222 11 -25 112 -97 135 -97 32
0 12 41 -36 76 -39 28 -50 42 -50 63 0 95 119 129 484 135 456 8 676 -27 839
-133 41 -26 67 -66 67 -102 0 -35 -45 -103 -87 -130 -66 -43 -181 -89 -286
-114 -55 -14 -103 -23 -105 -21 -2 3 24 49 58 103 95 151 125 219 114 251 -8
22 -16 27 -44 27 -35 0 -35 -1 -40 -50 -7 -56 -25 -96 -113 -242 -60 -100 -62
-102 -109 -114 -40 -9 -48 -15 -48 -34 0 -15 8 -26 20 -30 11 -3 20 -11 20
-17 0 -5 -25 -49 -57 -96 -72 -111 -126 -216 -121 -239 7 -38 34 -15 76 62 71
134 164 264 188 265 25 0 163 -44 205 -66 42 -21 56 -56 36 -87 -39 -60 -156
-99 -319 -107 -5 0 -8 -8 -8 -19 0 -48 170 -37 279 18 21 11 59 41 84 66 l46
47 6 -34 c4 -18 19 -48 34 -67 23 -28 35 -34 77 -38 42 -3 60 2 124 34 78 40
103 64 84 83 -8 8 -28 3 -70 -19 -143 -72 -215 -52 -200 57 6 46 47 131 75
156 12 10 58 15 189 18 94 2 172 1 171 -2 0 -3 -20 -36 -45 -75 -24 -38 -59
-98 -76 -132 -27 -52 -30 -64 -19 -77 27 -33 53 -16 190 120 142 143 198 191
207 181 4 -3 -8 -29 -25 -57 -17 -28 -31 -52 -31 -55 0 -2 -12 -21 -26 -42
-34 -51 -99 -188 -113 -239 -11 -41 -12 -42 -79 -58 -267 -67 -655 -240 -823
-367 -152 -115 -213 -208 -212 -325 0 -119 60 -218 186 -308 88 -63 164 -86
282 -86 112 0 183 20 285 80 136 81 218 166 352 365 79 117 108 171 201 380
40 90 49 102 88 124 24 14 82 63 129 110 l85 86 97 3 97 4 -15 -54 c-7 -29
-14 -79 -14 -110 0 -50 4 -62 31 -93 56 -63 149 -70 255 -18 93 46 314 266
314 314 0 32 -35 22 -63 -18 -64 -95 -191 -204 -285 -246 -127 -57 -203 -30
-202 71 1 26 9 70 18 97 16 47 19 50 47 47 67 -8 72 -47 15 -116 -40 -48 -45
-66 -22 -74 16 -5 109 89 117 118 6 27 -4 60 -30 96 -15 20 -14 22 19 45 19
13 42 37 52 54 25 41 195 216 233 238 l31 18 0 -24 c0 -13 -25 -71 -54 -130
-47 -89 -53 -107 -41 -117 27 -22 65 0 168 96 145 136 197 179 197 161 0 -23
-52 -135 -92 -197 -19 -30 -48 -79 -63 -109 -26 -51 -26 -55 -10 -68 10 -7 23
-9 29 -5 6 4 44 29 84 55 62 41 189 107 207 107 3 0 5 -13 5 -28 0 -33 32 -67
72 -77 19 -5 39 0 71 19 24 15 51 24 60 20 25 -9 48 9 117 91 63 75 66 76 103
72 21 -3 41 -7 43 -9 2 -3 -14 -47 -37 -98 -69 -160 -82 -256 -43 -332 35 -68
129 -74 244 -16 71 36 160 118 160 149 0 30 -19 23 -72 -26 -51 -48 -157 -105
-196 -105 -76 0 -99 88 -60 220 22 72 71 180 83 180 12 0 35 -41 35 -64 0 -7
-9 -25 -21 -40 -17 -22 -19 -29 -8 -42 11 -13 16 -11 40 12 48 45 47 108 -2
160 -20 21 -20 23 -4 55 10 19 37 62 61 96 54 76 57 103 12 103 -43 0 -116
-43 -203 -120 -120 -105 -141 -103 -65 5 72 103 72 101 56 114 -21 17 -73 -32
-141 -133 l-56 -83 -62 -11 c-33 -6 -63 -9 -66 -7 -2 3 20 55 49 116 59 121
59 141 3 147 -27 3 -31 -1 -55 -60 -14 -35 -44 -103 -65 -151 l-39 -88 -80
-33 c-43 -18 -90 -38 -103 -45 -13 -7 -22 -9 -20 -4 9 19 107 199 137 251 35
60 37 79 9 96 -29 19 -120 -39 -280 -176 -33 -29 -58 -46 -55 -38 53 123 60
145 51 159 -27 43 -124 5 -235 -92 -60 -51 -68 -55 -54 -29 9 17 38 56 66 88
53 60 57 77 23 82 -26 4 -83 -60 -173 -193 -94 -140 -123 -193 -116 -210 4
-10 -1 -15 -16 -15 -18 0 -20 4 -14 33 10 53 88 205 166 322 56 84 70 113 62
125 -5 8 -18 13 -28 11 -11 -2 -49 -3 -87 -2 -60 2 -75 -2 -137 -35 -74 -38
-208 -148 -251 -205 -74 -96 -107 -203 -74 -239 18 -19 17 -20 -7 -20 -14 0
-40 -3 -57 -6 l-32 -7 61 174 c74 215 76 252 13 228 -31 -11 -50 -45 -62 -114
-6 -33 -29 -114 -50 -180 l-39 -119 -83 -18 c-45 -10 -85 -16 -87 -13 -16 16
121 297 189 387 55 74 59 101 17 106 -48 6 -150 -62 -281 -186 -37 -36 -70
-62 -74 -59 -7 8 47 98 100 169 58 76 41 110 -29 61 -32 -22 -53 -28 -117 -33
-42 -3 -77 -4 -77 -4 0 1 14 17 31 35 43 46 52 74 38 116 -14 43 -55 66 -98
53 -28 -8 -140 -88 -182 -130 -33 -33 -97 -137 -119 -195 -13 -33 -24 -61 -26
-63 -1 -2 -22 16 -46 41 -32 32 -64 51 -121 72 -43 15 -76 29 -75 30 2 1 48
15 103 30 112 30 281 108 336 154 20 17 44 46 53 65 22 47 21 121 -4 161 -49
79 -232 160 -429 190 -112 17 -667 20 -776 4z m1335 -442 c0 -27 -30 -53 -99
-86 -39 -19 -74 -32 -78 -28 -8 9 51 72 97 102 38 26 80 32 80 12z m1015 -94
c0 -29 -125 -165 -227 -247 -45 -36 -86 -66 -90 -66 -19 0 -5 61 25 106 103
157 292 291 292 207z m1315 -123 c-23 -37 -38 -50 -55 -50 -13 0 -26 4 -30 10
-6 9 105 103 113 95 3 -2 -10 -27 -28 -55z m-1393 -111 c-19 -46 -40 -101 -46
-121 -8 -24 -19 -38 -29 -38 -9 0 -57 -3 -107 -7 -49 -3 -88 -3 -85 -1 3 3 50
41 106 85 55 44 120 100 145 124 24 24 45 43 47 43 2 -1 -12 -40 -31 -85z
m1056 -41 c-21 -36 -88 -87 -116 -88 -25 0 -31 24 -15 56 10 21 27 32 68 45
81 25 85 24 63 -13z m-1438 -234 c-74 -64 -115 -96 -115 -89 0 19 34 106 44
112 13 9 99 21 106 15 3 -2 -13 -19 -35 -38z m-155 13 c0 -1 -13 -36 -29 -77
-26 -69 -31 -75 -60 -78 -46 -5 -83 36 -79 86 l3 37 75 17 c84 18 90 19 90 15z
m-250 -87 c0 -54 64 -123 124 -134 20 -4 36 -12 36 -18 0 -6 -38 -85 -85 -176
-168 -325 -330 -514 -515 -601 -65 -31 -87 -36 -167 -39 -68 -3 -106 1 -145
13 -202 66 -318 234 -266 386 27 80 134 198 246 273 103 68 399 202 577 262
88 30 168 54 178 54 11 0 17 -8 17 -20z"/>
<path d="M7613 2035 c-44 -44 -44 -88 1 -93 48 -6 116 70 96 108 -17 31 -57
25 -97 -15z"/>
<path d="M6229 2019 c-45 -45 -47 -66 -7 -89 27 -14 29 -14 68 25 43 42 49 64
24 89 -24 24 -40 20 -85 -25z"/>
</g>
</svg>
